<svg xmlns="http://www.w3.org/2000/svg" viewBox="0 0 256 256" role="img" aria-labelledby="title desc">
  <title id="title">DotnetBoiler logo</title>
  <desc id="desc">A polished green and coral DB monogram for the DotnetBoiler app.</desc>
  <defs>
    <linearGradient id="mark" x1="42" y1="36" x2="214" y2="220" gradientUnits="userSpaceOnUse">
      <stop stop-color="#26735B"/>
      <stop offset="1" stop-color="#C9613E"/>
    </linearGradient>
    <filter id="shadow" x="0" y="0" width="256" height="256" color-interpolation-filters="sRGB">
      <feDropShadow dx="0" dy="14" stdDeviation="18" flood-color="#1B3027" flood-opacity=".22"/>
    </filter>
  </defs>
  <rect width="256" height="256" rx="56" fill="#F8FBF9"/>
  <g filter="url(#shadow)">
    <rect x="38" y="38" width="180" height="180" rx="42" fill="url(#mark)"/>
    <path d="M82 79h44c31 0 51 20 51 49s-20 49-51 49H82V79Zm31 28v42h12c13 0 22-8 22-21s-9-21-22-21h-12Z" fill="#fff"/>
    <path d="M153 79h22c22 0 37 13 37 32 0 10-5 19-13 24 11 5 18 15 18 28 0 21-16 34-40 34h-24V79Zm22 47c8 0 13-5 13-12 0-8-5-12-13-12h-1v24h1Zm3 48c9 0 15-5 15-13s-6-13-15-13h-4v26h4Z" fill="#fff" opacity=".88"/>
  </g>
</svg>
