<svg xmlns="http://www.w3.org/2000/svg" width="1200" height="630" viewBox="0 0 1200 630" role="img" aria-labelledby="title desc">
  <title id="title">DotnetBoiler API and React starter</title>
  <desc id="desc">A polished Open Graph card for the DotnetBoiler project.</desc>
  <defs>
    <linearGradient id="bg" x1="0" y1="0" x2="1200" y2="630" gradientUnits="userSpaceOnUse">
      <stop stop-color="#F8FBF9"/>
      <stop offset=".58" stop-color="#E7EFEB"/>
      <stop offset="1" stop-color="#F5E8E1"/>
    </linearGradient>
    <linearGradient id="accent" x1="258" y1="158" x2="476" y2="404" gradientUnits="userSpaceOnUse">
      <stop stop-color="#26735B"/>
      <stop offset="1" stop-color="#C9613E"/>
    </linearGradient>
    <filter id="soft" x="-20%" y="-20%" width="140%" height="140%" color-interpolation-filters="sRGB">
      <feDropShadow dx="0" dy="24" stdDeviation="30" flood-color="#1B3027" flood-opacity=".16"/>
    </filter>
  </defs>
  <rect width="1200" height="630" fill="url(#bg)"/>
  <rect x="72" y="70" width="1056" height="490" rx="42" fill="rgba(255,255,255,.72)" stroke="#D5DDD7"/>
  <rect x="932" y="104" width="88" height="88" rx="22" fill="#FFFFFF" opacity=".78" transform="rotate(12 976 148)"/>
  <rect x="1000" y="420" width="128" height="128" rx="28" fill="#FFFFFF" opacity=".66" transform="rotate(-10 1064 484)"/>
  <rect x="100" y="440" width="92" height="92" rx="24" fill="#FFFFFF" opacity=".7" transform="rotate(14 146 486)"/>
  <g filter="url(#soft)">
    <rect x="160" y="152" width="230" height="230" rx="52" fill="url(#accent)"/>
    <path d="M216 206h58c41 0 68 27 68 64s-27 64-68 64h-58V206Zm41 38v52h16c17 0 29-10 29-26s-12-26-29-26h-16Z" fill="#fff"/>
  </g>
  <text x="454" y="220" fill="#1B3027" font-family="Inter, Arial, sans-serif" font-size="72" font-weight="800">DotnetBoiler</text>
  <text x="458" y="288" fill="#52645A" font-family="Inter, Arial, sans-serif" font-size="32" font-weight="700">ASP.NET Core API + React TypeScript</text>
  <text x="458" y="354" fill="#26362F" font-family="Inter, Arial, sans-serif" font-size="28">A learner-friendly full-stack boilerplate with</text>
  <text x="458" y="392" fill="#26362F" font-family="Inter, Arial, sans-serif" font-size="28">one-command dev startup and server publishing.</text>
  <rect x="458" y="440" width="330" height="54" rx="14" fill="#26735B"/>
  <text x="486" y="476" fill="#FFFFFF" font-family="Inter, Arial, sans-serif" font-size="22" font-weight="800">github.com/mustafazariwala</text>
</svg>
